# xmcd CD database file
#
# Track frame offsets:
#	150
#	27677
#	55426
#	83848
#	104545
#	136130
#	161617
#	184899
#	209656
#
# Disc length: 3114 seconds
#
# Revision: 0
# Processed by: cddbd v1.4PL0 Copyright (c) Steve Scherf et al.
# Submitted via: CDex 1.50beta9
#
DISCID=840c2809
DTITLE=Jamaaladeen Tacuma, Wolfgang Puschnig - Gemini-Gemini
DYEAR=1991
DGENRE=Jazz
TTITLE0=Bemsha Swing
TTITLE1=We see
TTITLE2=Well you needn't
TTITLE3=Epistrophy
TTITLE4=Ruby, my dear
TTITLE5=Round midnight
TTITLE6=Blue Monk
TTITLE7=Off Minor
TTITLE8=Straight, no chaser
EXTD=YEAR: 1991
EXTT0=
EXTT1=
EXTT2=
EXTT3=
EXTT4=
EXTT5=
EXTT6=
EXTT7=
EXTT8=
PLAYORDER=
